<mxfile host="app.diagrams.net" agent="Mozilla/5.0 (X11; Linux x86_64) AppleWebKit/537.36 (KHTML, like Gecko) Chrome/131.0.0.0 Safari/537.36" version="26.0.10">
  <diagram name="Page-1" id="MxZaip8Lkqmx8Y-5J4UL">
    <mxGraphModel dx="1364" dy="759" grid="1" gridSize="10" guides="1" tooltips="1" connect="1" arrows="1" fold="1" page="1" pageScale="1" pageWidth="827" pageHeight="1169" math="0" shadow="0">
      <root>
        <mxCell id="0" />
        <mxCell id="1" parent="0" />
        <mxCell id="SH3TEGv6jWpeI2iRywyq-2" value="" style="rounded=1;whiteSpace=wrap;html=1;dashed=1;" vertex="1" parent="1">
          <mxGeometry x="230" y="585" width="430" height="220" as="geometry" />
        </mxCell>
        <mxCell id="SH3TEGv6jWpeI2iRywyq-3" value="bot telegram server" style="rounded=1;whiteSpace=wrap;html=1;" vertex="1" parent="1">
          <mxGeometry x="260" y="590" width="160" height="95" as="geometry" />
        </mxCell>
        <mxCell id="SH3TEGv6jWpeI2iRywyq-4" value="websocket client" style="rounded=1;whiteSpace=wrap;html=1;" vertex="1" parent="1">
          <mxGeometry x="500" y="590" width="110" height="60" as="geometry" />
        </mxCell>
        <mxCell id="SH3TEGv6jWpeI2iRywyq-5" value="core algorithm" style="rounded=1;whiteSpace=wrap;html=1;" vertex="1" parent="1">
          <mxGeometry x="375" y="720" width="140" height="75" as="geometry" />
        </mxCell>
        <mxCell id="SH3TEGv6jWpeI2iRywyq-7" value="" style="endArrow=classic;startArrow=classic;html=1;rounded=0;" edge="1" parent="1" source="SH3TEGv6jWpeI2iRywyq-5" target="SH3TEGv6jWpeI2iRywyq-3">
          <mxGeometry width="50" height="50" relative="1" as="geometry">
            <mxPoint x="530" y="775" as="sourcePoint" />
            <mxPoint x="580" y="725" as="targetPoint" />
          </mxGeometry>
        </mxCell>
        <mxCell id="SH3TEGv6jWpeI2iRywyq-8" value="" style="endArrow=classic;startArrow=classic;html=1;rounded=0;" edge="1" parent="1" source="SH3TEGv6jWpeI2iRywyq-5" target="SH3TEGv6jWpeI2iRywyq-4">
          <mxGeometry width="50" height="50" relative="1" as="geometry">
            <mxPoint x="530" y="775" as="sourcePoint" />
            <mxPoint x="580" y="725" as="targetPoint" />
          </mxGeometry>
        </mxCell>
        <mxCell id="SH3TEGv6jWpeI2iRywyq-11" value="" style="rounded=1;whiteSpace=wrap;html=1;dashed=1;" vertex="1" parent="1">
          <mxGeometry x="230" y="240" width="430" height="210" as="geometry" />
        </mxCell>
        <mxCell id="SH3TEGv6jWpeI2iRywyq-14" value="ESP32CAMStream" style="rounded=1;whiteSpace=wrap;html=1;" vertex="1" parent="1">
          <mxGeometry x="255" y="330" width="120" height="60" as="geometry" />
        </mxCell>
        <mxCell id="SH3TEGv6jWpeI2iRywyq-15" value="&lt;p style=&quot;margin:0px;margin-top:6px;text-align:center;&quot;&gt;&lt;b&gt;Websocket server&lt;/b&gt;&lt;/p&gt;&lt;hr size=&quot;1&quot; style=&quot;border-style:solid;&quot;&gt;&lt;p style=&quot;margin:0px;margin-left:8px;&quot;&gt;+ Ip_adress: String&lt;br&gt;+ port: int&lt;/p&gt;" style="align=left;overflow=fill;html=1;dropTarget=0;whiteSpace=wrap;" vertex="1" parent="1">
          <mxGeometry x="435" y="360" width="160" height="70" as="geometry" />
        </mxCell>
        <mxCell id="SH3TEGv6jWpeI2iRywyq-16" value="" style="shape=component;jettyWidth=8;jettyHeight=4;" vertex="1" parent="SH3TEGv6jWpeI2iRywyq-15">
          <mxGeometry x="1" width="20" height="20" relative="1" as="geometry">
            <mxPoint x="-24" y="4" as="offset" />
          </mxGeometry>
        </mxCell>
        <mxCell id="SH3TEGv6jWpeI2iRywyq-17" value="&lt;p style=&quot;margin:0px;margin-top:6px;text-align:center;&quot;&gt;&lt;b&gt;Tensorflow object detector model&lt;/b&gt;&lt;/p&gt;&lt;hr size=&quot;1&quot; style=&quot;border-style:solid;&quot;&gt;&lt;p style=&quot;margin:0px;margin-left:8px;&quot;&gt;+ source: String&lt;br&gt;+ Attribute2: Type&lt;/p&gt;" style="align=left;overflow=fill;html=1;dropTarget=0;whiteSpace=wrap;" vertex="1" parent="1">
          <mxGeometry x="390" y="250" width="250" height="90" as="geometry" />
        </mxCell>
        <mxCell id="SH3TEGv6jWpeI2iRywyq-18" value="" style="shape=component;jettyWidth=8;jettyHeight=4;" vertex="1" parent="SH3TEGv6jWpeI2iRywyq-17">
          <mxGeometry x="1" width="20" height="20" relative="1" as="geometry">
            <mxPoint x="-24" y="4" as="offset" />
          </mxGeometry>
        </mxCell>
      </root>
    </mxGraphModel>
  </diagram>
</mxfile>
